# xmcd CD database file
#
# Track frame offsets:
#	150
#	14960
#	31578
#	44861
#	62352
#	77510
#	94586
#	110025
#
# Disc length: 1605 seconds
#
# Revision: 1
# Processed by: cddbd v1.5.2PL0 Copyright (c) Steve Scherf et al.
# Submitted via: CDex 1.82
#
DISCID=61064308
DTITLE=Irma - Letter To The Lord (2)
DYEAR=2011
DGENRE=Soul
TTITLE0=Arum Lily
TTITLE1=That Line
TTITLE2=First Of September
TTITLE3=Letter To The Lord (Piano)
TTITLE4=I Try
TTITLE5=Hey Ya
TTITLE6=Times They Are A Changing
TTITLE7=My Friend
EXTD=YEAR: 2011
EXTT0=
EXTT1=
EXTT2=
EXTT3=
EXTT4=
EXTT5=
EXTT6=
EXTT7=
PLAYORDER=
